# xmcd CD database file
#
# Track frame offsets:
#	150
#	22822
#	45160
#	67830
#
# Disc length: 1200 seconds
#
# Revision: 0
# Processed by: cddbd v1.5.1PL0 Copyright (c) Steve Scherf et al.
# Submitted via: CDex 1.51
#
DISCID=1e04ae04
DTITLE=JAYWALK - 誰よりも優しくて-NEW VERSION-
DYEAR=1995
DGENRE=JPop
TTITLE0=誰よりも優しくて-NEW VERSION-
TTITLE1=君と駅までの道
TTITLE2=誰よりも優しくて-NEW VERSION-(カラオケ)
TTITLE3=君と駅までの道(カラオケ)
EXTD=YEAR: 1995
EXTT0=
EXTT1=
EXTT2=
EXTT3=
PLAYORDER=
